<mxfile host="65bd71144e">
    <diagram id="7FHI-iyhmZ4FshymluYQ" name="Page-1">
        <mxGraphModel dx="560" dy="519" grid="0" gridSize="10" guides="1" tooltips="1" connect="1" arrows="1" fold="1" page="1" pageScale="1" pageWidth="827" pageHeight="1169" background="#ffffff" math="0" shadow="0">
            <root>
                <mxCell id="0"/>
                <mxCell id="1" parent="0"/>
                <mxCell id="8" style="edgeStyle=none;html=1;exitX=1;exitY=0.5;exitDx=0;exitDy=0;entryX=0.5;entryY=1;entryDx=0;entryDy=0;fontSize=15;curved=1;labelBackgroundColor=#FFFFFF;fontColor=#000000;labelBorderColor=default;strokeColor=#000000;fillColor=none;" parent="1" source="3" target="5" edge="1">
                    <mxGeometry relative="1" as="geometry">
                        <Array as="points">
                            <mxPoint x="530" y="250"/>
                            <mxPoint x="580" y="250"/>
                        </Array>
                    </mxGeometry>
                </mxCell>
                <mxCell id="9" value="Get music stats" style="edgeLabel;html=1;align=center;verticalAlign=middle;resizable=0;points=[];fontSize=15;labelBackgroundColor=#FFFFFF;fontColor=#000000;labelBorderColor=default;strokeColor=#000000;fillColor=none;" parent="8" vertex="1" connectable="0">
                    <mxGeometry x="-0.1193" relative="1" as="geometry">
                        <mxPoint as="offset"/>
                    </mxGeometry>
                </mxCell>
                <mxCell id="13" style="edgeStyle=none;curved=1;html=1;entryX=1;entryY=0.5;entryDx=0;entryDy=0;fontSize=15;labelBackgroundColor=#FFFFFF;fontColor=#000000;labelBorderColor=default;strokeColor=#000000;" parent="1" source="3" target="4" edge="1">
                    <mxGeometry relative="1" as="geometry"/>
                </mxCell>
                <mxCell id="14" value="Give Music" style="edgeLabel;html=1;align=center;verticalAlign=middle;resizable=0;points=[];fontSize=15;labelBackgroundColor=#FFFFFF;fontColor=#000000;labelBorderColor=default;strokeColor=#000000;" parent="13" vertex="1" connectable="0">
                    <mxGeometry x="0.449" relative="1" as="geometry">
                        <mxPoint x="37" as="offset"/>
                    </mxGeometry>
                </mxCell>
                <mxCell id="19" style="edgeStyle=none;curved=1;html=1;entryX=0.5;entryY=1;entryDx=0;entryDy=0;fontSize=15;labelBackgroundColor=#FFFFFF;fontColor=#000000;labelBorderColor=default;strokeColor=#000000;" parent="1" source="3" target="4" edge="1">
                    <mxGeometry relative="1" as="geometry">
                        <Array as="points">
                            <mxPoint x="210" y="350"/>
                        </Array>
                    </mxGeometry>
                </mxCell>
                <mxCell id="21" value="&amp;nbsp;Give Search Results" style="edgeLabel;html=1;align=center;verticalAlign=middle;resizable=0;points=[];fontSize=15;labelBackgroundColor=#FFFFFF;fontColor=#000000;labelBorderColor=default;strokeColor=#000000;" parent="19" vertex="1" connectable="0">
                    <mxGeometry x="-0.2815" y="-45" relative="1" as="geometry">
                        <mxPoint as="offset"/>
                    </mxGeometry>
                </mxCell>
                <mxCell id="3" value="&lt;font style=&quot;font-size: 22px;&quot;&gt;&lt;b&gt;SANGEET&lt;/b&gt;&lt;/font&gt;" style="shape=ellipse;html=1;dashed=0;whitespace=wrap;perimeter=ellipsePerimeter;labelBackgroundColor=#FFFFFF;fontColor=#000000;labelBorderColor=default;fillColor=none;strokeColor=#000000;" parent="1" vertex="1">
                    <mxGeometry x="294" y="130" width="200" height="110" as="geometry"/>
                </mxCell>
                <mxCell id="10" style="edgeStyle=none;html=1;fontSize=15;curved=1;labelBackgroundColor=#FFFFFF;fontColor=#000000;labelBorderColor=default;strokeColor=#000000;" parent="1" source="4" target="3" edge="1">
                    <mxGeometry relative="1" as="geometry">
                        <Array as="points">
                            <mxPoint x="210" y="110"/>
                        </Array>
                    </mxGeometry>
                </mxCell>
                <mxCell id="11" value="Request music" style="edgeLabel;html=1;align=center;verticalAlign=middle;resizable=0;points=[];fontSize=15;labelBackgroundColor=#FFFFFF;fontColor=#000000;labelBorderColor=default;strokeColor=#000000;" parent="10" vertex="1" connectable="0">
                    <mxGeometry x="-0.2439" y="-33" relative="1" as="geometry">
                        <mxPoint x="6" y="-7" as="offset"/>
                    </mxGeometry>
                </mxCell>
                <mxCell id="17" style="edgeStyle=none;curved=1;html=1;entryX=0;entryY=1;entryDx=0;entryDy=0;fontSize=15;labelBackgroundColor=#FFFFFF;fontColor=#000000;labelBorderColor=default;strokeColor=#000000;" parent="1" source="4" target="3" edge="1">
                    <mxGeometry relative="1" as="geometry">
                        <Array as="points">
                            <mxPoint x="220" y="270"/>
                        </Array>
                    </mxGeometry>
                </mxCell>
                <mxCell id="18" value="Search Music" style="edgeLabel;html=1;align=center;verticalAlign=middle;resizable=0;points=[];fontSize=15;labelBackgroundColor=#FFFFFF;fontColor=#000000;labelBorderColor=default;strokeColor=#000000;" parent="17" vertex="1" connectable="0">
                    <mxGeometry x="-0.3779" y="13" relative="1" as="geometry">
                        <mxPoint as="offset"/>
                    </mxGeometry>
                </mxCell>
                <mxCell id="4" value="Listener" style="html=1;dashed=0;whitespace=wrap;fontSize=22;labelBackgroundColor=#FFFFFF;fontColor=#000000;fillColor=none;strokeColor=#000000;" parent="1" vertex="1">
                    <mxGeometry x="40" y="160" width="100" height="50" as="geometry"/>
                </mxCell>
                <mxCell id="6" style="edgeStyle=none;html=1;entryX=1;entryY=0.5;entryDx=0;entryDy=0;fontSize=22;labelBackgroundColor=#FFFFFF;fontColor=#000000;labelBorderColor=default;strokeColor=#000000;fillColor=none;" parent="1" source="5" target="3" edge="1">
                    <mxGeometry relative="1" as="geometry"/>
                </mxCell>
                <mxCell id="7" value="&lt;font style=&quot;font-size: 15px;&quot;&gt;&amp;nbsp;Upload music&amp;nbsp;&lt;/font&gt;" style="edgeLabel;html=1;align=center;verticalAlign=middle;resizable=0;points=[];fontSize=22;labelBackgroundColor=#FFFFFF;fontColor=#000000;labelBorderColor=default;strokeColor=#000000;fillColor=none;" parent="6" vertex="1" connectable="0">
                    <mxGeometry x="0.3253" y="3" relative="1" as="geometry">
                        <mxPoint x="30" y="-3" as="offset"/>
                    </mxGeometry>
                </mxCell>
                <mxCell id="5" value="Artist" style="html=1;dashed=0;whitespace=wrap;fontSize=22;labelBackgroundColor=#FFFFFF;fontColor=#000000;labelBorderColor=default;strokeColor=#000000;fillColor=none;" parent="1" vertex="1">
                    <mxGeometry x="660" y="160" width="100" height="50" as="geometry"/>
                </mxCell>
                <mxCell id="24" style="edgeStyle=none;curved=1;html=1;entryX=1;entryY=0.5;entryDx=0;entryDy=0;fontSize=15;labelBackgroundColor=#FFFFFF;fontColor=#000000;labelBorderColor=default;strokeColor=#000000;" edge="1" source="28" target="33" parent="1">
                    <mxGeometry relative="1" as="geometry">
                        <Array as="points">
                            <mxPoint x="240" y="566"/>
                        </Array>
                    </mxGeometry>
                </mxCell>
                <mxCell id="25" value="Give Music" style="edgeLabel;html=1;align=center;verticalAlign=middle;resizable=0;points=[];fontSize=15;labelBackgroundColor=#FFFFFF;fontColor=#000000;labelBorderColor=default;strokeColor=#000000;" vertex="1" connectable="0" parent="24">
                    <mxGeometry x="0.449" relative="1" as="geometry">
                        <mxPoint x="37" as="offset"/>
                    </mxGeometry>
                </mxCell>
                <mxCell id="44" style="edgeStyle=none;curved=1;html=1;entryX=0.5;entryY=0;entryDx=0;entryDy=0;fontSize=13;labelBackgroundColor=#FFFFFF;fontColor=#000000;labelBorderColor=default;strokeColor=#000000;fillColor=none;" edge="1" parent="1" source="28" target="43">
                    <mxGeometry relative="1" as="geometry">
                        <Array as="points">
                            <mxPoint x="667" y="546"/>
                        </Array>
                    </mxGeometry>
                </mxCell>
                <mxCell id="45" value="Request music&amp;nbsp;" style="edgeLabel;html=1;align=center;verticalAlign=middle;resizable=0;points=[];fontSize=13;labelBackgroundColor=#FFFFFF;fontColor=#000000;labelBorderColor=default;strokeColor=#000000;fillColor=none;rotation=15;" vertex="1" connectable="0" parent="44">
                    <mxGeometry x="-0.1917" y="-15" relative="1" as="geometry">
                        <mxPoint x="-15" y="-11" as="offset"/>
                    </mxGeometry>
                </mxCell>
                <mxCell id="52" style="edgeStyle=none;curved=1;html=1;exitX=0.967;exitY=0.329;exitDx=0;exitDy=0;entryX=0.013;entryY=0.369;entryDx=0;entryDy=0;fontSize=13;labelBackgroundColor=#FFFFFF;fontColor=#000000;labelBorderColor=default;strokeColor=#000000;fillColor=none;exitPerimeter=0;entryPerimeter=0;" edge="1" parent="1" source="28" target="41">
                    <mxGeometry relative="1" as="geometry">
                        <Array as="points">
                            <mxPoint x="657" y="485"/>
                        </Array>
                    </mxGeometry>
                </mxCell>
                <mxCell id="53" value="Request users info" style="edgeLabel;html=1;align=center;verticalAlign=middle;resizable=0;points=[];fontSize=13;labelBackgroundColor=#FFFFFF;fontColor=#000000;labelBorderColor=default;strokeColor=#000000;fillColor=none;rotation=10;" vertex="1" connectable="0" parent="52">
                    <mxGeometry x="-0.3008" y="11" relative="1" as="geometry">
                        <mxPoint x="17" y="12" as="offset"/>
                    </mxGeometry>
                </mxCell>
                <mxCell id="56" style="edgeStyle=none;curved=1;html=1;entryX=0.135;entryY=-0.011;entryDx=0;entryDy=0;entryPerimeter=0;fontSize=13;labelBackgroundColor=#FFFFFF;fontColor=#000000;labelBorderColor=default;strokeColor=#000000;fillColor=none;exitX=1;exitY=1;exitDx=0;exitDy=0;" edge="1" parent="1" source="28" target="43">
                    <mxGeometry relative="1" as="geometry">
                        <Array as="points">
                            <mxPoint x="578" y="560"/>
                        </Array>
                    </mxGeometry>
                </mxCell>
                <mxCell id="57" value="Update music stats" style="edgeLabel;html=1;align=center;verticalAlign=middle;resizable=0;points=[];fontSize=13;labelBackgroundColor=#FFFFFF;fontColor=#000000;labelBorderColor=default;strokeColor=#000000;fillColor=none;rotation=15;" vertex="1" connectable="0" parent="56">
                    <mxGeometry x="-0.0468" y="6" relative="1" as="geometry">
                        <mxPoint x="-10" y="8" as="offset"/>
                    </mxGeometry>
                </mxCell>
                <mxCell id="28" value="&lt;font style=&quot;font-size: 22px;&quot;&gt;&lt;b&gt;Stream Music&lt;/b&gt;&lt;/font&gt;" style="shape=ellipse;html=1;dashed=0;whitespace=wrap;perimeter=ellipsePerimeter;labelBackgroundColor=#FFFFFF;fontColor=#000000;labelBorderColor=default;fillColor=none;strokeColor=#000000;" vertex="1" parent="1">
                    <mxGeometry x="324" y="440" width="200" height="110" as="geometry"/>
                </mxCell>
                <mxCell id="29" style="edgeStyle=none;html=1;fontSize=15;curved=1;labelBackgroundColor=#FFFFFF;fontColor=#000000;labelBorderColor=default;strokeColor=#000000;" edge="1" source="33" target="28" parent="1">
                    <mxGeometry relative="1" as="geometry">
                        <Array as="points">
                            <mxPoint x="256" y="453"/>
                        </Array>
                    </mxGeometry>
                </mxCell>
                <mxCell id="30" value="Request music" style="edgeLabel;html=1;align=center;verticalAlign=middle;resizable=0;points=[];fontSize=15;labelBackgroundColor=#FFFFFF;fontColor=#000000;labelBorderColor=default;strokeColor=#000000;" vertex="1" connectable="0" parent="29">
                    <mxGeometry x="-0.2439" y="-33" relative="1" as="geometry">
                        <mxPoint x="8" y="-27" as="offset"/>
                    </mxGeometry>
                </mxCell>
                <mxCell id="33" value="Listener" style="html=1;dashed=0;whitespace=wrap;fontSize=22;labelBackgroundColor=#FFFFFF;fontColor=#000000;labelBorderColor=default;fillColor=none;strokeColor=#000000;" vertex="1" parent="1">
                    <mxGeometry x="70" y="470" width="100" height="50" as="geometry"/>
                </mxCell>
                <mxCell id="60" style="edgeStyle=none;curved=1;html=1;entryX=0;entryY=1;entryDx=0;entryDy=0;fontSize=13;exitX=1;exitY=0.75;exitDx=0;exitDy=0;labelBackgroundColor=#FFFFFF;fontColor=#000000;labelBorderColor=default;strokeColor=#000000;" edge="1" parent="1" source="36" target="58">
                    <mxGeometry relative="1" as="geometry">
                        <Array as="points">
                            <mxPoint x="240" y="740"/>
                        </Array>
                    </mxGeometry>
                </mxCell>
                <mxCell id="61" value="Give music Details" style="edgeLabel;html=1;align=center;verticalAlign=middle;resizable=0;points=[];fontSize=13;labelBackgroundColor=#FFFFFF;fontColor=#000000;labelBorderColor=default;strokeColor=#000000;" vertex="1" connectable="0" parent="60">
                    <mxGeometry x="-0.247" y="2" relative="1" as="geometry">
                        <mxPoint x="20" y="-12" as="offset"/>
                    </mxGeometry>
                </mxCell>
                <mxCell id="36" value="Artist" style="html=1;dashed=0;whitespace=wrap;fontSize=22;labelBackgroundColor=#FFFFFF;fontColor=#000000;labelBorderColor=default;fillColor=none;strokeColor=#000000;" vertex="1" parent="1">
                    <mxGeometry x="60" y="640" width="100" height="50" as="geometry"/>
                </mxCell>
                <mxCell id="50" style="edgeStyle=none;curved=1;html=1;entryX=1;entryY=0.5;entryDx=0;entryDy=0;fontSize=13;labelBackgroundColor=#FFFFFF;fontColor=#000000;labelBorderColor=default;strokeColor=#000000;fillColor=none;exitX=0;exitY=0.75;exitDx=0;exitDy=0;" edge="1" parent="1" source="41" target="28">
                    <mxGeometry relative="1" as="geometry"/>
                </mxCell>
                <mxCell id="51" value="Give users Info" style="edgeLabel;html=1;align=center;verticalAlign=middle;resizable=0;points=[];fontSize=13;labelBackgroundColor=#FFFFFF;fontColor=#000000;labelBorderColor=default;strokeColor=#000000;fillColor=none;rotation=15;" vertex="1" connectable="0" parent="50">
                    <mxGeometry x="0.5625" y="-1" relative="1" as="geometry">
                        <mxPoint x="50" y="10" as="offset"/>
                    </mxGeometry>
                </mxCell>
                <mxCell id="41" value="user_db" style="html=1;dashed=0;whitespace=wrap;shape=partialRectangle;right=0;fontSize=13;labelBackgroundColor=#FFFFFF;fontColor=#000000;strokeColor=#000000;fillColor=none;" vertex="1" parent="1">
                    <mxGeometry x="683" y="506" width="100" height="30" as="geometry"/>
                </mxCell>
                <mxCell id="46" style="edgeStyle=none;curved=1;html=1;entryX=0.5;entryY=1;entryDx=0;entryDy=0;fontSize=13;labelBackgroundColor=#FFFFFF;fontColor=#000000;labelBorderColor=default;strokeColor=#000000;fillColor=none;exitX=0;exitY=0.5;exitDx=0;exitDy=0;" edge="1" parent="1" source="43" target="28">
                    <mxGeometry relative="1" as="geometry"/>
                </mxCell>
                <mxCell id="47" value="Give music" style="edgeLabel;html=1;align=center;verticalAlign=middle;resizable=0;points=[];fontSize=13;labelBackgroundColor=#FFFFFF;fontColor=#000000;labelBorderColor=default;strokeColor=#000000;fillColor=none;rotation=15;" vertex="1" connectable="0" parent="46">
                    <mxGeometry x="0.506" relative="1" as="geometry">
                        <mxPoint x="32" y="11" as="offset"/>
                    </mxGeometry>
                </mxCell>
                <mxCell id="43" value="music_db" style="html=1;dashed=0;whitespace=wrap;shape=partialRectangle;right=0;fontSize=13;labelBackgroundColor=#FFFFFF;fontColor=#000000;fillColor=none;strokeColor=#000000;" vertex="1" parent="1">
                    <mxGeometry x="689" y="602" width="110" height="30" as="geometry"/>
                </mxCell>
                <mxCell id="65" style="edgeStyle=none;curved=1;html=1;entryX=1;entryY=0.5;entryDx=0;entryDy=0;fontSize=13;labelBackgroundColor=#FFFFFF;fontColor=#000000;labelBorderColor=default;strokeColor=#000000;" edge="1" parent="1" source="58" target="36">
                    <mxGeometry relative="1" as="geometry"/>
                </mxCell>
                <mxCell id="66" value="Request music Details" style="edgeLabel;html=1;align=center;verticalAlign=middle;resizable=0;points=[];fontSize=13;labelBackgroundColor=#FFFFFF;fontColor=#000000;labelBorderColor=default;strokeColor=#000000;" vertex="1" connectable="0" parent="65">
                    <mxGeometry x="0.1755" y="1" relative="1" as="geometry">
                        <mxPoint x="22" y="-4" as="offset"/>
                    </mxGeometry>
                </mxCell>
                <mxCell id="72" style="edgeStyle=none;curved=1;html=1;exitX=1;exitY=1;exitDx=0;exitDy=0;entryX=0.852;entryY=1.025;entryDx=0;entryDy=0;fontSize=13;labelBackgroundColor=#FFFFFF;fontColor=#000000;labelBorderColor=default;strokeColor=#000000;fillColor=none;entryPerimeter=0;" edge="1" parent="1" source="58" target="43">
                    <mxGeometry relative="1" as="geometry">
                        <Array as="points">
                            <mxPoint x="570" y="770"/>
                        </Array>
                    </mxGeometry>
                </mxCell>
                <mxCell id="73" value="Give music details" style="edgeLabel;html=1;align=center;verticalAlign=middle;resizable=0;points=[];fontSize=13;labelBackgroundColor=#FFFFFF;fontColor=#000000;labelBorderColor=default;strokeColor=#000000;fillColor=none;" vertex="1" connectable="0" parent="72">
                    <mxGeometry x="-0.5811" y="6" relative="1" as="geometry">
                        <mxPoint x="68" y="-35" as="offset"/>
                    </mxGeometry>
                </mxCell>
                <mxCell id="58" value="&lt;font style=&quot;font-size: 22px;&quot;&gt;&lt;b&gt;Upload Music&lt;/b&gt;&lt;/font&gt;" style="shape=ellipse;html=1;dashed=0;whitespace=wrap;perimeter=ellipsePerimeter;labelBackgroundColor=#FFFFFF;fontColor=#000000;labelBorderColor=default;fillColor=none;strokeColor=#000000;" vertex="1" parent="1">
                    <mxGeometry x="334" y="620" width="200" height="110" as="geometry"/>
                </mxCell>
                <mxCell id="70" style="edgeStyle=none;curved=1;html=1;entryX=1;entryY=0.5;entryDx=0;entryDy=0;fontSize=13;labelBackgroundColor=#FFFFFF;fontColor=#000000;labelBorderColor=default;strokeColor=#000000;fillColor=none;exitX=0.25;exitY=1;exitDx=0;exitDy=0;" edge="1" parent="1" source="43" target="58">
                    <mxGeometry relative="1" as="geometry">
                        <Array as="points">
                            <mxPoint x="640" y="700"/>
                        </Array>
                    </mxGeometry>
                </mxCell>
                <mxCell id="71" value="Request music details" style="edgeLabel;html=1;align=center;verticalAlign=middle;resizable=0;points=[];fontSize=13;labelBackgroundColor=#FFFFFF;fontColor=#000000;labelBorderColor=default;strokeColor=#000000;fillColor=none;rotation=0;" vertex="1" connectable="0" parent="70">
                    <mxGeometry x="0.1949" relative="1" as="geometry">
                        <mxPoint x="17" y="-22" as="offset"/>
                    </mxGeometry>
                </mxCell>
                <mxCell id="81" style="edgeStyle=none;html=1;fontSize=15;curved=1;labelBackgroundColor=#FFFFFF;fontColor=#000000;labelBorderColor=default;strokeColor=#000000;" edge="1" parent="1">
                    <mxGeometry relative="1" as="geometry">
                        <Array as="points">
                            <mxPoint x="210" y="110"/>
                        </Array>
                        <mxPoint x="130" y="160" as="sourcePoint"/>
                        <mxPoint x="313.6970970193254" y="152.22330490584721" as="targetPoint"/>
                    </mxGeometry>
                </mxCell>
                <mxCell id="82" value="Request music" style="edgeLabel;html=1;align=center;verticalAlign=middle;resizable=0;points=[];fontSize=15;labelBackgroundColor=#FFFFFF;fontColor=#000000;labelBorderColor=default;strokeColor=#000000;" vertex="1" connectable="0" parent="81">
                    <mxGeometry x="-0.2439" y="-33" relative="1" as="geometry">
                        <mxPoint x="6" y="-7" as="offset"/>
                    </mxGeometry>
                </mxCell>
                <mxCell id="85" style="edgeStyle=none;html=1;fontSize=15;curved=1;labelBackgroundColor=#FFFFFF;fontColor=#000000;labelBorderColor=default;strokeColor=#000000;" edge="1" parent="1">
                    <mxGeometry relative="1" as="geometry">
                        <Array as="points">
                            <mxPoint x="210" y="110"/>
                        </Array>
                        <mxPoint x="130" y="160" as="sourcePoint"/>
                        <mxPoint x="313.6970970193254" y="152.22330490584721" as="targetPoint"/>
                    </mxGeometry>
                </mxCell>
                <mxCell id="86" value="Request music" style="edgeLabel;html=1;align=center;verticalAlign=middle;resizable=0;points=[];fontSize=15;labelBackgroundColor=#FFFFFF;fontColor=#000000;labelBorderColor=default;strokeColor=#000000;" vertex="1" connectable="0" parent="85">
                    <mxGeometry x="-0.2439" y="-33" relative="1" as="geometry">
                        <mxPoint x="6" y="-7" as="offset"/>
                    </mxGeometry>
                </mxCell>
                <mxCell id="89" style="edgeStyle=none;html=1;fontSize=15;curved=1;labelBackgroundColor=#FFFFFF;fontColor=#000000;labelBorderColor=default;strokeColor=#000000;" edge="1" parent="1">
                    <mxGeometry relative="1" as="geometry">
                        <Array as="points">
                            <mxPoint x="210" y="110"/>
                        </Array>
                        <mxPoint x="130" y="160" as="sourcePoint"/>
                        <mxPoint x="313.6970970193254" y="152.22330490584721" as="targetPoint"/>
                    </mxGeometry>
                </mxCell>
                <mxCell id="90" value="Request music" style="edgeLabel;html=1;align=center;verticalAlign=middle;resizable=0;points=[];fontSize=15;labelBackgroundColor=#FFFFFF;fontColor=#000000;labelBorderColor=default;strokeColor=#000000;" vertex="1" connectable="0" parent="89">
                    <mxGeometry x="-0.2439" y="-33" relative="1" as="geometry">
                        <mxPoint x="6" y="-7" as="offset"/>
                    </mxGeometry>
                </mxCell>
            </root>
        </mxGraphModel>
    </diagram>
</mxfile>